<svg xmlns="http://www.w3.org/2000/svg" width="578.797" height="212.001" viewBox="0 0 578.797 212.001">
  <g id="Layer_2" data-name="Layer 2" transform="translate(0.005 0.013)">
    <g id="Layer_1" data-name="Layer 1" transform="translate(-0.005 -0.012)">
      <path id="Path_2" data-name="Path 2" d="M496.75,77.544h17.884L505.7,53.8Z" transform="translate(-131.121 -14.154)" fill="none"/>
      <path id="Path_3" data-name="Path 3" d="M199.961,72.663H155.507V4.31a1.48,1.48,0,0,0-1.48-1.48H124.29a1.48,1.48,0,0,0-1.48,1.48V99.145a1.48,1.48,0,0,0,1.48,1.48h75.671a1.48,1.48,0,0,0,1.48-1.48v-25A1.48,1.48,0,0,0,199.961,72.663Z" transform="translate(-32.473 -0.727)"/>
      <rect id="Rectangle_7" data-name="Rectangle 7" width="32.682" height="97.765" rx="2" transform="translate(175.957 2.104)"/>
      <path id="Path_4" data-name="Path 4" d="M469.632,2.8a1.48,1.48,0,0,0-1.361-.91H437.838a1.48,1.48,0,0,0-1.369.91L403.321,81.986V4.065a1.48,1.48,0,0,0-1.48-1.48h-31.75a1.48,1.48,0,0,0-1.265.74L348.308,36.947,327.79,3.3a1.48,1.48,0,0,0-1.265-.74H294.76a1.48,1.48,0,0,0-1.48,1.48V98.9a1.48,1.48,0,0,0,1.48,1.48h29.02a1.48,1.48,0,0,0,1.48-1.48V51.886l22.486,34.776h.562l22.486-34.776V98.9a1.48,1.48,0,0,0,1.48,1.48h57.277a1.48,1.48,0,0,0,1.384-.947l4.3-11.225a1.48,1.48,0,0,1,1.384-.954H468.8a1.48,1.48,0,0,1,1.376.94l4.44,11.247a1.48,1.48,0,0,0,1.376.94h32.238a1.48,1.48,0,0,0,1.369-2.05Zm-25.8,61.243L452.777,40.3l8.938,23.744Z" transform="translate(-78.031 -0.482)"/>
      <path id="Path_5" data-name="Path 5" d="M725.576,73.781H675.084V63.17h46.282a1.48,1.48,0,0,0,1.48-1.48V41.047a1.48,1.48,0,0,0-1.48-1.48H675.084V29.645h49.774a1.48,1.48,0,0,0,1.48-1.48V4.31a1.48,1.48,0,0,0-1.48-1.48H560.16a1.48,1.48,0,0,0-1.48,1.48V29a1.48,1.48,0,0,0,1.48,1.48h25.808V99.145a1.48,1.48,0,0,0,1.48,1.48h29.723a1.48,1.48,0,0,0,1.48-1.48V30.488h24.328V99.145a1.48,1.48,0,0,0,1.48,1.48h81.117a1.48,1.48,0,0,0,1.48-1.48V75.261A1.48,1.48,0,0,0,725.576,73.781Z" transform="translate(-148.26 -0.727)"/>
      <path id="Path_6" data-name="Path 6" d="M65.163,65.11A1.48,1.48,0,0,0,63.2,65a18.8,18.8,0,0,1-19.645,2.96,17.107,17.107,0,0,1-9.575-9.752c-6.038-15.819,8.879-30.6,24.728-24.247a17.018,17.018,0,0,1,4.624,2.789,1.48,1.48,0,0,0,1.976-.1L85.985,15.972a1.48,1.48,0,0,0,0-2.124A51.054,51.054,0,0,0,14.953,14.9C1.257,28.58-3.7,48.646,2.877,68.373a31.366,31.366,0,0,0,1.731,4.188c9.286,18.668,27.007,29.39,46.385,29.39a50.625,50.625,0,0,0,34.976-13.9,1.48,1.48,0,0,0,0-2.124Z" transform="translate(0.004 0.012)"/>
      <circle id="Ellipse_1" data-name="Ellipse 1" cx="18.52" cy="18.52" r="18.52" transform="translate(139.02 142.621)" fill="none"/>
      <path id="Path_7" data-name="Path 7" d="M352.09,151.861H321.606a1.48,1.48,0,0,0-1.48,1.043l-13.511,45.875-15.442-46.2a1.48,1.48,0,0,0-1.406-1.006H263.722a1.48,1.48,0,0,0-1.406,1.006l-15.442,46.2L233.363,152.9a1.48,1.48,0,0,0-1.421-1.065H200.866a1.48,1.48,0,0,0-1.413,1.946l5.986,18.357a50.973,50.973,0,0,0-88.716,7.814V153.348a1.48,1.48,0,0,0-1.48-1.48H85.764a1.48,1.48,0,0,0-1.48,1.48V195.02l-34.332-42.6a1.48,1.48,0,0,0-1.154-.555H20.4a1.48,1.48,0,0,0-1.48,1.48v94.806a1.48,1.48,0,0,0,1.48,1.48H49.841a1.48,1.48,0,0,0,1.48-1.48V204.491l35.871,44.6a1.48,1.48,0,0,0,1.154.548h26.859a1.48,1.48,0,0,0,1.48-1.48v-26.6A50.98,50.98,0,0,0,214.2,200.747c0-.562,0-1.125-.044-1.68l16.323,50.24a1.48,1.48,0,0,0,1.406,1.021h26.371a1.48,1.48,0,0,0,1.391-.992l16.826-47.6L293.3,249.352a1.48,1.48,0,0,0,1.4.992h26.371a1.48,1.48,0,0,0,1.406-1.021l31.025-95.5a1.48,1.48,0,0,0-1.406-1.961ZM163.219,219.267a18.5,18.5,0,1,1,18.5-18.5A18.5,18.5,0,0,1,163.219,219.267Z" transform="translate(-4.918 -39.754)"/>
      <path id="Path_8" data-name="Path 8" d="M462.826,258.412a11.21,11.21,0,0,0-14.754,14.754,10.2,10.2,0,0,0,5.66,5.66,11.21,11.21,0,0,0,14.761-14.754A10.218,10.218,0,0,0,462.826,258.412Z" transform="translate(-118.039 -67.764)"/>
    </g>
  </g>
</svg>
